<svg width="23" height="7" viewBox="0 0 23 7" fill="none" xmlns="http://www.w3.org/2000/svg">
<path d="M9.31091e-06 5.16657C9.32586e-06 4.82435 0.131704 4.49615 0.366125 4.25417C0.600546 4.01219 0.918487 3.87625 1.25001 3.87625L18.2375 3.87625L16.6125 2.21173C16.3771 1.96876 16.2449 1.63922 16.2449 1.2956C16.2449 0.951986 16.3771 0.622445 16.6125 0.379472C16.8479 0.1365 17.1671 -2.30448e-07 17.5 -2.18458e-07C17.8329 -2.06467e-07 18.1521 0.1365 18.3875 0.379472L22.1375 4.25044C22.311 4.43189 22.4285 4.66231 22.4752 4.91262C22.5219 5.16292 22.4957 5.42191 22.4 5.65689C22.3062 5.89253 22.147 6.09424 21.9423 6.23661C21.7377 6.37897 21.4968 6.45562 21.25 6.45689L1.25001 6.45689C0.918487 6.45689 0.600546 6.32095 0.366125 6.07896C0.131704 5.83698 9.29595e-06 5.50878 9.31091e-06 5.16657Z" fill="white"/>
</svg>
